# xmcd
#
# Track frame offsets: 
#        150
#        19864
#        39174
#        58980
#        75046
#        93473
#        111165
#        131075
#        147384
#        165309
#        189553
#        210658
#
# Disc length: 3027 seconds
#
# Revision: 0
# Processed by: cddbd v1.5.2PL0 Copyright (c) Steve Scherf et al.
# Submitted via: ExactAudioCopy v0.99pb4
#
DISCID=9b0bd10c
DTITLE=Tribute to Jewel - Pickin on Jewel: The Bluegrass Tribute
DYEAR=2008
DGENRE=Bluegrass
TTITLE0=Who Will Save Your Soul
TTITLE1=Intuition
TTITLE2=Jupiter (Swallow the Moon)
TTITLE3=Stand
TTITLE4=Again and Again
TTITLE5=You Were Meant for Me
TTITLE6=Hands
TTITLE7=Foolish Games
TTITLE8=Break Me
TTITLE9=Goodbye Alice in Wonderland
TTITLE10=Standing Still
TTITLE11=Coffee House Stomp (Original Composition Inspired by the Musi
TTITLE11=c of Jewel)
EXTD=
EXTT0=
EXTT1=
EXTT2=
EXTT3=
EXTT4=
EXTT5=
EXTT6=
EXTT7=
EXTT8=
EXTT9=
EXTT10=
EXTT11=
PLAYORDER=
